<svg xmlns="http://www.w3.org/2000/svg" viewBox="0 0 80 80" role="img" aria-label="Apple">
  <path fill="#fff" d="M54.8 42.1c-.1-8 6.6-11.9 6.9-12.1-3.8-5.6-9.7-6.3-11.7-6.4-5-.5-9.8 2.9-12.3 2.9-2.6 0-6.5-2.8-10.7-2.7-5.5.1-10.6 3.2-13.4 8.1-5.7 9.9-1.5 24.5 4 32.5 2.7 3.9 6 8.3 10.2 8.1 4.1-.2 5.6-2.6 10.6-2.6 4.9 0 6.3 2.6 10.7 2.5 4.4-.1 7.2-4 9.9-7.9 3.1-4.5 4.4-8.9 4.5-9.1-.1 0-8.6-3.3-8.7-13.3ZM46.7 18.4c2.2-2.7 3.8-6.5 3.4-10.2-3.3.1-7.3 2.2-9.7 4.9-2.1 2.4-4 6.3-3.5 10 3.7.3 7.5-1.9 9.8-4.7Z"/>
</svg>
